# This file uses centimeters as units for non-parametric coordinates.

mtllib Alpha_MedRock_3.mtl
g default
v -2.141879 -4.158735 1.437464
v 0.967788 -4.158735 1.437464
v -1.653750 3.158735 1.802024
v 1.802024 3.158735 1.802024
v -2.303593 3.158735 -2.094736
v 1.802024 3.158735 -2.094736
v -2.134303 -4.158735 -2.154096
v 1.802024 -4.158735 -2.231673
v -2.303593 3.158735 0.420810
v 1.802024 3.158735 0.420810
v 0.967788 -5.285815 0.420810
v -2.802024 -5.285815 0.420810
v -2.141339 -1.963494 1.802024
v 1.802024 -1.963494 1.802024
v 2.188259 -1.963494 0.420810
v 2.188259 -1.963494 -2.802024
v -2.802024 -1.963494 -2.802024
v -2.802024 -1.963494 0.420810
vt 0.375000 0.000000
vt 0.625000 0.000000
vt 0.375000 0.250000
vt 0.625000 0.250000
vt 0.375000 0.500000
vt 0.625000 0.500000
vt 0.375000 0.750000
vt 0.625000 0.750000
vt 0.375000 1.000000
vt 0.625000 1.000000
vt 0.875000 0.000000
vt 0.875000 0.250000
vt 0.125000 0.000000
vt 0.125000 0.250000
vt 0.300000 0.250000
vt 0.375000 0.325000
vt 0.625000 0.325000
vt 0.700000 0.250000
vt 0.625000 0.925000
vt 0.700000 0.000000
vt 0.300000 0.000000
vt 0.375000 0.925000
vt 0.375000 0.075000
vt 0.625000 0.075000
vt 0.700000 0.075000
vt 0.625000 0.675000
vt 0.875000 0.075000
vt 0.125000 0.075000
vt 0.375000 0.675000
vt 0.300000 0.075000
vn 0.000000 0.000000 1.000000
vn 0.000000 0.000000 1.000000
vn 0.000000 0.000000 1.000000
vn 0.000000 0.000000 1.000000
vn 0.000000 1.000000 0.000000
vn 0.000000 1.000000 0.000000
vn 0.000000 1.000000 0.000000
vn 0.000000 1.000000 0.000000
vn 0.000000 0.136784 -0.990601
vn 0.000000 0.136784 -0.990601
vn 0.000000 0.136784 -0.990601
vn 0.000000 0.136784 -0.990601
vn -0.003996 -0.917836 -0.396939
vn -0.003996 -0.917836 -0.396939
vn -0.003996 -0.917836 -0.396939
vn -0.003996 -0.917836 -0.396939
vn 0.997169 0.075190 0.000000
vn 0.997169 0.075190 0.000000
vn 0.997169 0.075190 0.000000
vn 0.997169 0.075190 0.000000
vn -0.995299 0.096850 0.000000
vn -0.995299 0.096850 0.000000
vn -0.995299 0.096850 0.000000
vn -0.995299 0.096850 0.000000
vn 0.000000 1.000000 0.000000
vn 0.000000 1.000000 0.000000
vn 0.000000 1.000000 0.000000
vn 0.000000 1.000000 0.000000
vn 0.989677 0.037313 0.138374
vn 0.989677 0.037313 0.138374
vn 0.989677 0.037313 0.138374
vn 0.989677 0.037313 0.138374
vn 0.000000 -0.669795 0.742546
vn 0.000000 -0.669795 0.742546
vn 0.000000 -0.669795 0.742546
vn 0.000000 -0.669795 0.742546
vn -0.900087 0.086633 0.427012
vn -0.900087 0.086633 0.427012
vn -0.900087 0.086633 0.427012
vn -0.900087 0.086633 0.427012
vn 0.000000 -0.163825 0.986489
vn 0.000000 -0.163825 0.986489
vn 0.000000 -0.163825 0.986489
vn 0.000000 -0.163825 0.986489
vn 0.885059 -0.349876 0.307014
vn 0.885059 -0.349876 0.307014
vn 0.885059 -0.349876 0.307014
vn 0.885059 -0.349876 0.307014
vn 0.959010 -0.270551 0.084269
vn 0.959010 -0.270551 0.084269
vn 0.959010 -0.270551 0.084269
vn 0.959010 -0.270551 0.084269
vn -0.008373 -0.267868 -0.963419
vn -0.008373 -0.267868 -0.963419
vn -0.008373 -0.267868 -0.963419
vn -0.008373 -0.267868 -0.963419
vn -0.981004 -0.135070 -0.139239
vn -0.981004 -0.135070 -0.139239
vn -0.981004 -0.135070 -0.139239
vn -0.981004 -0.135070 -0.139239
vn -0.868898 -0.032550 0.493919
vn -0.868898 -0.032550 0.493919
vn -0.868898 -0.032550 0.493919
vn -0.868898 -0.032550 0.493919
s off
g Medium_Rock_2
usemtl initialShadingGroup
f 13/23/1 14/24/2 4/4/3 3/3/4
f 9/16/5 10/17/6 6/6/7 5/5/8
f 5/5/9 6/6/10 16/26/11 17/29/12
f 7/7/13 8/8/14 11/19/15 12/22/16
f 10/18/17 15/25/18 16/27/19 6/12/20
f 17/28/21 18/30/22 9/15/23 5/14/24
f 3/3/25 4/4/26 10/17/27 9/16/28
f 14/24/29 15/25/30 10/18/31 4/4/32
f 12/22/33 11/19/34 2/10/35 1/9/36
f 9/15/37 18/30/38 13/23/39 3/3/40
f 1/1/41 2/2/42 14/24/43 13/23/44
f 2/2/45 11/20/46 15/25/47 14/24/48
f 16/27/49 15/25/50 11/20/51 8/11/52
f 17/29/53 16/26/54 8/8/55 7/7/56
f 7/13/57 12/21/58 18/30/59 17/28/60
f 13/23/61 18/30/62 12/21/63 1/1/64
