# This file uses centimeters as units for non-parametric coordinates.

mtllib Alpha_SmallRock_1.mtl
g default
v -1.606591 -1.617440 2.565985
v 0.606591 -1.617440 2.565985
v -1.932721 0.617440 2.565985
v 0.932721 0.617440 2.565985
v -1.932721 0.617440 -3.565985
v 0.932721 0.617440 -3.565985
v -1.293207 -1.617440 -3.565985
v 0.293207 -1.617440 -3.565985
v -2.102992 0.617440 -1.726394
v 1.449364 0.617440 -1.726394
v 0.559797 -2.288178 -1.726394
v -1.559797 -2.288178 -1.726394
v -1.932721 -0.395454 2.565985
v 0.932721 -0.723488 2.565985
v 1.449364 -0.723488 -1.726394
v 0.932721 -0.723488 -3.565985
v -1.932721 -0.395455 -3.565985
v -2.102992 -0.395454 -1.726394
v -0.500000 -1.617440 2.565985
v -0.500000 -2.288178 -1.726394
v -0.500000 -1.617440 -3.565985
v -0.500000 -0.723488 -4.113696
v -0.500000 0.617440 -4.113696
v -0.500000 0.617440 -1.726394
v -0.500000 0.617440 2.992784
v -0.500000 -0.723488 2.992784
vt 0.375000 0.000000
vt 0.625000 0.000000
vt 0.375000 0.250000
vt 0.625000 0.250000
vt 0.375000 0.500000
vt 0.625000 0.500000
vt 0.375000 0.750000
vt 0.625000 0.750000
vt 0.375000 1.000000
vt 0.625000 1.000000
vt 0.875000 0.000000
vt 0.875000 0.250000
vt 0.125000 0.000000
vt 0.125000 0.250000
vt 0.200000 0.250000
vt 0.375000 0.425000
vt 0.625000 0.425000
vt 0.800000 0.250000
vt 0.625000 0.825000
vt 0.800000 0.000000
vt 0.200000 0.000000
vt 0.375000 0.825000
vt 0.375000 0.100000
vt 0.625000 0.100000
vt 0.800000 0.100000
vt 0.625000 0.650000
vt 0.875000 0.100000
vt 0.125000 0.100000
vt 0.375000 0.650000
vt 0.200000 0.100000
vt 0.500000 0.000000
vt 0.500000 1.000000
vt 0.500000 0.825000
vt 0.500000 0.750000
vt 0.500000 0.650000
vt 0.500000 0.500000
vt 0.500000 0.425000
vt 0.500000 0.250000
vt 0.500000 0.100000
vn 0.285495 0.000000 0.958380
vn 0.285495 0.000000 0.958380
vn 0.285495 0.000000 0.958380
vn 0.285495 0.000000 0.958380
vn 0.000000 1.000000 0.000000
vn 0.000000 1.000000 0.000000
vn 0.000000 1.000000 0.000000
vn 0.000000 1.000000 0.000000
vn 0.357083 0.000000 -0.934072
vn 0.357083 0.000000 -0.934072
vn 0.357083 0.000000 -0.934072
vn 0.357083 0.000000 -0.934072
vn 0.000000 -0.939499 -0.342553
vn 0.000000 -0.939499 -0.342553
vn 0.000000 -0.939499 -0.342553
vn 0.000000 -0.939499 -0.342553
vn 0.962752 0.000000 -0.270385
vn 0.962752 0.000000 -0.270385
vn 0.962752 0.000000 -0.270385
vn 0.962752 0.000000 -0.270385
vn -0.995744 0.000000 -0.092165
vn -0.995744 0.000000 -0.092165
vn -0.995744 0.000000 -0.092165
vn -0.995744 0.000000 -0.092165
vn 0.000000 1.000000 0.000000
vn 0.000000 1.000000 0.000000
vn 0.000000 1.000000 0.000000
vn 0.000000 1.000000 0.000000
vn 0.992834 0.000000 0.119500
vn 0.992834 0.000000 0.119500
vn 0.992834 0.000000 0.119500
vn 0.992834 0.000000 0.119500
vn 0.000000 -0.988010 0.154389
vn 0.000000 -0.988010 0.154389
vn 0.000000 -0.988010 0.154389
vn 0.000000 -0.988010 0.154389
vn -0.999214 0.000000 0.039637
vn -0.999214 0.000000 0.039637
vn -0.999214 0.000000 0.039637
vn -0.999214 0.000000 0.039637
vn 0.160196 -0.256743 0.953111
vn 0.160196 -0.256743 0.953111
vn 0.160196 -0.256743 0.953111
vn 0.160196 -0.256743 0.953111
vn 0.893282 -0.441691 0.083400
vn 0.893282 -0.441691 0.083400
vn 0.893282 -0.441691 0.083400
vn 0.893282 -0.441691 0.083400
vn 0.818345 -0.508945 -0.266995
vn 0.818345 -0.508945 -0.266995
vn 0.818345 -0.508945 -0.266995
vn 0.818345 -0.508945 -0.266995
vn 0.223132 -0.357610 -0.906823
vn 0.223132 -0.357610 -0.906823
vn 0.223132 -0.357610 -0.906823
vn 0.223132 -0.357610 -0.906823
vn -0.920764 -0.349630 -0.173070
vn -0.920764 -0.349630 -0.173070
vn -0.920764 -0.349630 -0.173070
vn -0.920764 -0.349630 -0.173070
vn -0.962603 -0.268665 0.034837
vn -0.962603 -0.268666 0.034837
vn -0.962603 -0.268666 0.034837
vn -0.962603 -0.268665 0.034837
vn 0.000000 -0.988010 0.154389
vn 0.000000 -0.988010 0.154389
vn 0.000000 -0.988010 0.154389
vn 0.000000 -0.988010 0.154389
vn 0.000000 -0.939499 -0.342553
vn 0.000000 -0.939499 -0.342553
vn 0.000000 -0.939499 -0.342553
vn 0.000000 -0.939499 -0.342553
vn -0.270401 -0.317033 -0.909051
vn -0.270401 -0.317033 -0.909051
vn -0.270401 -0.317033 -0.909051
vn -0.270401 -0.317033 -0.909051
vn -0.357083 0.000000 -0.934072
vn -0.357083 0.000000 -0.934072
vn -0.357083 0.000000 -0.934072
vn -0.357083 0.000000 -0.934072
vn 0.000000 1.000000 0.000000
vn 0.000000 1.000000 0.000000
vn 0.000000 1.000000 0.000000
vn 0.000000 1.000000 0.000000
vn 0.000000 1.000000 0.000000
vn 0.000000 1.000000 0.000000
vn 0.000000 1.000000 0.000000
vn 0.000000 1.000000 0.000000
vn -0.285495 0.000000 0.958380
vn -0.285495 0.000000 0.958380
vn -0.285495 0.000000 0.958380
vn -0.285495 0.000000 0.958380
vn -0.189449 -0.222119 0.956437
vn -0.189449 -0.222119 0.956437
vn -0.189449 -0.222119 0.956437
vn -0.189449 -0.222119 0.956437
s off
g Small_Rock_2
usemtl initialShadingGroup
f 25/38/1 26/39/2 14/24/3 4/4/4
f 23/36/5 24/37/6 10/17/7 6/6/8
f 22/35/9 23/36/10 6/6/11 16/26/12
f 20/33/13 21/34/14 8/8/15 11/19/16
f 10/18/17 15/25/18 16/27/19 6/12/20
f 17/28/21 18/30/22 9/15/23 5/14/24
f 24/37/25 25/38/26 4/4/27 10/17/28
f 14/24/29 15/25/30 10/18/31 4/4/32
f 19/32/33 20/33/34 11/19/35 2/10/36
f 9/15/37 18/30/38 13/23/39 3/3/40
f 26/39/41 19/31/42 2/2/43 14/24/44
f 2/2/45 11/20/46 15/25/47 14/24/48
f 16/27/49 15/25/50 11/20/51 8/11/52
f 21/34/53 22/35/54 16/26/55 8/8/56
f 7/13/57 12/21/58 18/30/59 17/28/60
f 13/23/61 18/30/62 12/21/63 1/1/64
f 12/22/65 20/33/66 19/32/67 1/9/68
f 7/7/69 21/34/70 20/33/71 12/22/72
f 17/29/73 22/35/74 21/34/75 7/7/76
f 5/5/77 23/36/78 22/35/79 17/29/80
f 9/16/81 24/37/82 23/36/83 5/5/84
f 3/3/85 25/38/86 24/37/87 9/16/88
f 13/23/89 26/39/90 25/38/91 3/3/92
f 1/1/93 19/31/94 26/39/95 13/23/96
