# This file uses centimeters as units for non-parametric coordinates.

mtllib Alpha_BigRock_3.mtl
g default
v -3.191072 -6.562381 2.964923
v 2.191072 -6.562381 2.964923
v -5.174272 5.562381 5.562381
v 4.174272 5.562381 5.562381
v -5.174272 5.562381 -6.562381
v 4.174272 5.562381 -6.562381
v -3.191072 -6.562381 -3.964923
v 2.191072 -6.562381 -3.964923
v -6.040433 5.562381 1.018282
v 4.845717 5.562381 -0.500000
v 2.191072 -6.562381 -0.500000
v -3.191072 -6.562381 -0.500000
v -4.219416 -5.349905 4.293377
v 3.219416 -5.349905 4.293377
v 3.890861 -5.349905 -0.500000
v 3.219416 -1.806259 -5.673012
v -4.219416 -1.806259 -5.673012
v -5.085577 -5.349905 1.018282
v 0.038214 -6.562381 2.964923
v 0.038214 -6.562381 -0.500000
v 0.038214 -6.562381 -3.964923
v 0.243883 -1.806259 -6.952068
v 0.434854 5.562381 -7.841438
v 0.434854 5.562381 -0.500000
v 0.434854 5.562381 5.562381
v 0.243883 -5.349905 4.293377
vt 0.375000 0.000000
vt 0.625000 0.000000
vt 0.375000 0.250000
vt 0.625000 0.250000
vt 0.375000 0.500000
vt 0.625000 0.500000
vt 0.375000 0.750000
vt 0.625000 0.750000
vt 0.375000 1.000000
vt 0.625000 1.000000
vt 0.875000 0.000000
vt 0.875000 0.250000
vt 0.125000 0.000000
vt 0.125000 0.250000
vt 0.250000 0.250000
vt 0.375000 0.375000
vt 0.625000 0.375000
vt 0.750000 0.250000
vt 0.625000 0.875000
vt 0.750000 0.000000
vt 0.250000 0.000000
vt 0.375000 0.875000
vt 0.375000 0.025000
vt 0.625000 0.025000
vt 0.750000 0.025000
vt 0.625000 0.725000
vt 0.875000 0.025000
vt 0.125000 0.025000
vt 0.375000 0.725000
vt 0.250000 0.025000
vt 0.525000 0.000000
vt 0.525000 1.000000
vt 0.525000 0.875000
vt 0.525000 0.750000
vt 0.525000 0.725000
vt 0.525000 0.500000
vt 0.525000 0.375000
vt 0.525000 0.250000
vt 0.525000 0.025000
vn 0.000000 -0.115513 0.993306
vn 0.000000 -0.115513 0.993306
vn 0.000000 -0.115513 0.993306
vn 0.000000 -0.115513 0.993306
vn 0.000000 1.000000 0.000000
vn 0.000000 1.000000 0.000000
vn 0.000000 1.000000 0.000000
vn 0.000000 1.000000 0.000000
vn 0.352539 -0.139103 -0.925401
vn 0.352539 -0.139103 -0.925401
vn 0.352539 -0.139103 -0.925401
vn 0.352539 -0.139103 -0.925401
vn 0.000000 -1.000000 0.000000
vn 0.000000 -1.000000 0.000000
vn 0.000000 -1.000000 0.000000
vn 0.000000 -1.000000 0.000000
vn 0.982225 -0.110007 -0.152095
vn 0.982225 -0.110007 -0.152095
vn 0.982225 -0.110007 -0.152095
vn 0.982225 -0.110007 -0.152095
vn -0.983080 -0.109829 -0.146596
vn -0.983080 -0.109829 -0.146596
vn -0.983080 -0.109829 -0.146596
vn -0.983080 -0.109829 -0.146596
vn 0.000000 1.000000 0.000000
vn 0.000000 1.000000 0.000000
vn 0.000000 1.000000 0.000000
vn 0.000000 1.000000 0.000000
vn 0.988082 -0.093567 0.122229
vn 0.988082 -0.093567 0.122229
vn 0.988082 -0.093567 0.122229
vn 0.988082 -0.093567 0.122229
vn 0.000000 -1.000000 0.000000
vn 0.000000 -1.000000 0.000000
vn 0.000000 -1.000000 0.000000
vn 0.000000 -1.000000 0.000000
vn -0.971671 -0.097541 0.215271
vn -0.971671 -0.097541 0.215271
vn -0.971671 -0.097541 0.215271
vn -0.971671 -0.097541 0.215271
vn 0.000000 -0.738613 0.674130
vn 0.000000 -0.738613 0.674130
vn 0.000000 -0.738613 0.674130
vn 0.000000 -0.738613 0.674130
vn 0.648954 -0.758995 0.052764
vn 0.648954 -0.758995 0.052764
vn 0.648954 -0.758995 0.052764
vn 0.648955 -0.758995 0.052764
vn 0.849639 -0.461427 -0.255341
vn 0.849639 -0.461427 -0.255341
vn 0.849639 -0.461427 -0.255341
vn 0.849639 -0.461427 -0.255341
vn 0.215549 -0.454554 -0.864245
vn 0.215549 -0.454554 -0.864245
vn 0.215549 -0.454553 -0.864245
vn 0.215549 -0.454554 -0.864245
vn -0.872029 -0.434219 -0.225875
vn -0.872029 -0.434219 -0.225875
vn -0.872029 -0.434219 -0.225875
vn -0.872029 -0.434219 -0.225875
vn -0.591752 -0.802525 0.076046
vn -0.591752 -0.802525 0.076046
vn -0.591752 -0.802525 0.076046
vn -0.591752 -0.802525 0.076046
vn 0.000000 -1.000000 0.000000
vn 0.000000 -1.000000 0.000000
vn 0.000000 -1.000000 0.000000
vn 0.000000 -1.000000 0.000000
vn 0.000000 -1.000000 0.000000
vn 0.000000 -1.000000 0.000000
vn 0.000000 -1.000000 0.000000
vn 0.000000 -1.000000 0.000000
vn -0.146639 -0.448000 -0.881926
vn -0.146639 -0.448000 -0.881926
vn -0.146639 -0.448000 -0.881926
vn -0.146639 -0.448000 -0.881926
vn -0.244111 -0.128663 -0.961174
vn -0.244111 -0.128664 -0.961174
vn -0.244111 -0.128664 -0.961174
vn -0.244111 -0.128664 -0.961174
vn 0.000000 1.000000 0.000000
vn 0.000000 1.000000 0.000000
vn 0.000000 1.000000 0.000000
vn 0.000000 1.000000 0.000000
vn 0.000000 1.000000 0.000000
vn 0.000000 1.000000 0.000000
vn 0.000000 1.000000 0.000000
vn 0.000000 1.000000 0.000000
vn 0.000000 -0.115513 0.993306
vn 0.000000 -0.115513 0.993306
vn 0.000000 -0.115513 0.993306
vn 0.000000 -0.115513 0.993306
vn 0.000000 -0.738613 0.674130
vn 0.000000 -0.738613 0.674130
vn 0.000000 -0.738613 0.674130
vn 0.000000 -0.738613 0.674130
s off
g Big_Rock_3
usemtl initialShadingGroup
f 25/38/1 26/39/2 14/24/3 4/4/4
f 23/36/5 24/37/6 10/17/7 6/6/8
f 22/35/9 23/36/10 6/6/11 16/26/12
f 20/33/13 21/34/14 8/8/15 11/19/16
f 10/18/17 15/25/18 16/27/19 6/12/20
f 17/28/21 18/30/22 9/15/23 5/14/24
f 24/37/25 25/38/26 4/4/27 10/17/28
f 14/24/29 15/25/30 10/18/31 4/4/32
f 19/32/33 20/33/34 11/19/35 2/10/36
f 9/15/37 18/30/38 13/23/39 3/3/40
f 26/39/41 19/31/42 2/2/43 14/24/44
f 2/2/45 11/20/46 15/25/47 14/24/48
f 16/27/49 15/25/50 11/20/51 8/11/52
f 21/34/53 22/35/54 16/26/55 8/8/56
f 7/13/57 12/21/58 18/30/59 17/28/60
f 13/23/61 18/30/62 12/21/63 1/1/64
f 12/22/65 20/33/66 19/32/67 1/9/68
f 7/7/69 21/34/70 20/33/71 12/22/72
f 17/29/73 22/35/74 21/34/75 7/7/76
f 5/5/77 23/36/78 22/35/79 17/29/80
f 9/16/81 24/37/82 23/36/83 5/5/84
f 3/3/85 25/38/86 24/37/87 9/16/88
f 13/23/89 26/39/90 25/38/91 3/3/92
f 1/1/93 19/31/94 26/39/95 13/23/96
