# This file uses centimeters as units for non-parametric coordinates.

mtllib Alpha_SmallRock_2.mtl
g default
v -1.000000 -1.835562 0.000000
v -0.146235 -1.835562 0.177022
v -1.520253 0.835562 0.520253
v 0.374018 0.835562 0.697275
v -1.520253 0.835562 -1.405097
v 0.520253 0.835562 -1.302007
v -1.000000 -1.835562 -1.000000
v 0.000000 -1.835562 -0.896910
v -1.416202 0.301337 0.675820
v 0.269967 0.301337 0.852842
v 0.416202 0.301337 -1.313112
v -1.416202 0.301337 -1.416202
v -1.520253 0.835562 -0.295949
v 0.520253 0.835562 -0.295949
v 0.766592 0.301337 -0.316760
v 0.000000 -1.835562 -0.400000
v -1.000000 -1.835562 -0.400000
v -1.416202 0.301337 -0.316759
v -1.000000 -1.835562 -0.760000
v 0.000000 -1.835562 -0.760000
v 0.766592 0.301337 -0.976425
v 0.520253 0.835562 -1.030532
v -1.520253 0.835562 -1.030532
v -1.416202 0.301337 -0.976425
v -1.468566 -0.553422 0.249721
v 0.103486 -0.553422 0.426743
v 0.563792 -0.553422 -0.350056
v 0.563792 -0.553422 -0.889855
v 0.249721 -0.553422 -1.146631
v -1.249721 -0.553422 -1.249721
v -1.468566 -0.553422 -0.889855
v -1.468566 -0.553422 -0.350056
v -1.049944 -1.579134 0.049944
v -0.096291 -1.579134 0.226966
v 0.049944 -1.579134 -0.390011
v 0.049944 -1.579134 -0.785971
v 0.049944 -1.579134 -1.210328
v -1.049944 -1.579134 -1.313418
v -1.049944 -1.579134 -0.785971
v -1.049944 -1.579134 -0.390011
vt 0.375000 0.000000
vt 0.625000 0.000000
vt 0.375000 0.250000
vt 0.625000 0.250000
vt 0.375000 0.500000
vt 0.625000 0.500000
vt 0.375000 0.750000
vt 0.625000 0.750000
vt 0.375000 1.000000
vt 0.625000 1.000000
vt 0.875000 0.000000
vt 0.875000 0.250000
vt 0.125000 0.000000
vt 0.125000 0.250000
vt 0.375000 0.200000
vt 0.625000 0.200000
vt 0.625000 0.550000
vt 0.875000 0.200000
vt 0.125000 0.200000
vt 0.375000 0.550000
vt 0.275000 0.250000
vt 0.375000 0.350000
vt 0.625000 0.350000
vt 0.725000 0.250000
vt 0.725000 0.200000
vt 0.625000 0.900000
vt 0.725000 0.000000
vt 0.275000 0.000000
vt 0.375000 0.900000
vt 0.275000 0.200000
vt 0.185000 0.000000
vt 0.375000 0.810000
vt 0.625000 0.810000
vt 0.815000 0.000000
vt 0.815000 0.200000
vt 0.625000 0.440000
vt 0.815000 0.250000
vt 0.185000 0.250000
vt 0.375000 0.440000
vt 0.185000 0.200000
vt 0.375000 0.120000
vt 0.625000 0.120000
vt 0.725000 0.120000
vt 0.815000 0.120000
vt 0.625000 0.630000
vt 0.875000 0.120000
vt 0.125000 0.120000
vt 0.375000 0.630000
vt 0.185000 0.120000
vt 0.275000 0.120000
vt 0.375000 0.024000
vt 0.625000 0.024000
vt 0.725000 0.024000
vt 0.815000 0.024000
vt 0.625000 0.726000
vt 0.875000 0.024000
vt 0.125000 0.024000
vt 0.375000 0.726000
vt 0.185000 0.024000
vt 0.275000 0.024000
vn -0.094514 0.278338 0.955822
vn -0.094514 0.278338 0.955822
vn -0.094514 0.278338 0.955822
vn -0.094514 0.278338 0.955822
vn 0.000000 1.000000 0.000000
vn 0.000000 1.000000 0.000000
vn 0.000000 1.000000 0.000000
vn 0.000000 1.000000 0.000000
vn 0.053150 0.020753 -0.998371
vn 0.053150 0.020753 -0.998371
vn 0.053150 0.020753 -0.998371
vn 0.053150 0.020753 -0.998371
vn 0.000000 -1.000000 0.000000
vn 0.000000 -1.000000 0.000000
vn 0.000000 -1.000000 0.000000
vn 0.000000 -1.000000 0.000000
vn 0.908106 0.418741 0.000000
vn 0.908106 0.418741 0.000000
vn 0.908106 0.418741 0.000000
vn 0.908106 0.418741 0.000000
vn -0.981555 -0.191177 0.000000
vn -0.981556 -0.191177 0.000000
vn -0.981556 -0.191177 0.000000
vn -0.981556 -0.191177 0.000000
vn -0.097321 -0.434016 0.895633
vn -0.097321 -0.434016 0.895633
vn -0.097321 -0.434016 0.895633
vn -0.097321 -0.434016 0.895633
vn 0.972989 -0.230851 0.000000
vn 0.972989 -0.230851 0.000000
vn 0.972989 -0.230851 0.000000
vn 0.972989 -0.230851 0.000000
vn 0.060629 -0.190825 -0.979750
vn 0.060629 -0.190825 -0.979750
vn 0.060629 -0.190825 -0.979750
vn 0.060629 -0.190825 -0.979750
vn -0.998129 0.061147 0.000000
vn -0.998129 0.061147 0.000000
vn -0.998129 0.061147 0.000000
vn -0.998129 0.061147 0.000000
vn 0.000000 1.000000 0.000000
vn 0.000000 1.000000 0.000000
vn 0.000000 1.000000 0.000000
vn 0.000000 1.000000 0.000000
vn 0.945979 0.161442 0.281175
vn 0.945980 0.161442 0.281175
vn 0.945979 0.161442 0.281175
vn 0.945979 0.161442 0.281175
vn 0.856578 -0.298202 0.421129
vn 0.856578 -0.298202 0.421129
vn 0.856578 -0.298202 0.421129
vn 0.856578 -0.298202 0.421129
vn 0.000000 -1.000000 0.000000
vn 0.000000 -1.000000 0.000000
vn 0.000000 -1.000000 0.000000
vn 0.000000 -1.000000 0.000000
vn -0.998129 0.061147 0.000000
vn -0.998129 0.061147 0.000000
vn -0.998129 0.061147 0.000000
vn -0.998129 0.061147 0.000000
vn -0.981556 -0.191177 0.000000
vn -0.981556 -0.191177 0.000000
vn -0.981556 -0.191177 0.000000
vn -0.981556 -0.191177 0.000000
vn 0.000000 -1.000000 0.000000
vn 0.000000 -1.000000 0.000000
vn 0.000000 -1.000000 0.000000
vn 0.000000 -1.000000 0.000000
vn 0.645590 -0.246453 -0.722824
vn 0.645590 -0.246453 -0.722824
vn 0.645590 -0.246453 -0.722824
vn 0.645590 -0.246453 -0.722824
vn 0.862569 0.094870 -0.496965
vn 0.862569 0.094870 -0.496965
vn 0.862569 0.094870 -0.496965
vn 0.862569 0.094870 -0.496965
vn 0.000000 1.000000 0.000000
vn 0.000000 1.000000 0.000000
vn 0.000000 1.000000 0.000000
vn 0.000000 1.000000 0.000000
vn -0.981556 -0.191177 0.000000
vn -0.981556 -0.191177 0.000000
vn -0.981556 -0.191177 0.000000
vn -0.981556 -0.191177 0.000000
vn -0.959410 -0.102911 -0.262569
vn -0.959409 -0.102911 -0.262569
vn -0.959410 -0.102911 -0.262569
vn -0.959410 -0.102911 -0.262569
vn -0.135918 -0.203353 0.969625
vn -0.135918 -0.203353 0.969626
vn -0.135918 -0.203353 0.969626
vn -0.135918 -0.203353 0.969625
vn 0.861186 -0.343376 0.374770
vn 0.861186 -0.343376 0.374770
vn 0.861186 -0.343376 0.374770
vn 0.861186 -0.343376 0.374770
vn 0.894081 -0.447906 -0.000000
vn 0.894081 -0.447906 -0.000000
vn 0.894081 -0.447906 -0.000000
vn 0.894081 -0.447906 -0.000000
vn 0.863871 -0.308317 -0.398332
vn 0.863871 -0.308317 -0.398332
vn 0.863871 -0.308317 -0.398331
vn 0.863871 -0.308317 -0.398332
vn 0.078921 0.061787 -0.994964
vn 0.078921 0.061787 -0.994964
vn 0.078921 0.061787 -0.994964
vn 0.078921 0.061787 -0.994964
vn -0.930630 -0.285034 -0.229529
vn -0.930630 -0.285034 -0.229529
vn -0.930630 -0.285034 -0.229529
vn -0.930630 -0.285034 -0.229529
vn -0.925859 -0.377869 0.000000
vn -0.925859 -0.377869 0.000000
vn -0.925859 -0.377869 0.000000
vn -0.925859 -0.377869 0.000000
vn -0.925859 -0.377869 0.000000
vn -0.925859 -0.377869 0.000000
vn -0.925859 -0.377869 0.000000
vn -0.925859 -0.377869 0.000000
vn -0.188812 -0.187738 0.963901
vn -0.188812 -0.187738 0.963901
vn -0.188812 -0.187738 0.963901
vn -0.188812 -0.187738 0.963901
vn 0.949198 -0.212046 0.232506
vn 0.949198 -0.212046 0.232506
vn 0.949198 -0.212046 0.232506
vn 0.949198 -0.212046 0.232506
vn 0.981556 -0.191177 0.000000
vn 0.981556 -0.191177 0.000000
vn 0.981556 -0.191177 0.000000
vn 0.981556 -0.191177 0.000000
vn 0.981556 -0.191177 0.000000
vn 0.981556 -0.191177 0.000000
vn 0.981556 -0.191177 0.000000
vn 0.981556 -0.191177 0.000000
vn 0.062055 -0.772472 -0.632010
vn 0.062055 -0.772472 -0.632010
vn 0.062055 -0.772472 -0.632010
vn 0.062055 -0.772472 -0.632010
vn -0.981556 -0.191177 0.000000
vn -0.981556 -0.191177 0.000000
vn -0.981556 -0.191177 0.000000
vn -0.981556 -0.191177 0.000000
vn -0.981556 -0.191177 0.000000
vn -0.981556 -0.191177 0.000000
vn -0.981556 -0.191177 0.000000
vn -0.981556 -0.191177 0.000000
vn -0.981556 -0.191177 0.000000
vn -0.981556 -0.191177 0.000000
vn -0.981556 -0.191177 0.000000
vn -0.981556 -0.191177 0.000000
s off
g Small_Rock_1
usemtl initialShadingGroup
f 9/15/1 10/16/2 4/4/3 3/3/4
f 13/22/5 14/23/6 22/36/7 23/39/8
f 5/5/9 6/6/10 11/17/11 12/20/12
f 19/32/13 20/33/14 16/26/15 17/29/16
f 14/24/17 15/25/18 21/35/19 22/37/20
f 23/38/21 24/40/22 18/30/23 13/21/24
f 25/41/25 26/42/26 10/16/27 9/15/28
f 15/25/29 27/43/30 28/44/31 21/35/32
f 12/20/33 11/17/34 29/45/35 30/48/36
f 24/40/37 31/49/38 32/50/39 18/30/40
f 3/3/41 4/4/42 14/23/43 13/22/44
f 10/16/45 15/25/46 14/24/47 4/4/48
f 26/42/49 27/43/50 15/25/51 10/16/52
f 17/29/53 16/26/54 2/10/55 1/9/56
f 18/30/57 32/50/58 25/41/59 9/15/60
f 13/21/61 18/30/62 9/15/63 3/3/64
f 7/7/65 8/8/66 20/33/67 19/32/68
f 21/35/69 28/44/70 29/46/71 11/18/72
f 22/37/73 21/35/74 11/18/75 6/12/76
f 23/39/77 22/36/78 6/6/79 5/5/80
f 12/19/81 24/40/82 23/38/83 5/14/84
f 30/47/85 31/49/86 24/40/87 12/19/88
f 33/51/89 34/52/90 26/42/91 25/41/92
f 34/52/93 35/53/94 27/43/95 26/42/96
f 28/44/97 27/43/98 35/53/99 36/54/100
f 29/46/101 28/44/102 36/54/103 37/56/104
f 30/48/105 29/45/106 37/55/107 38/58/108
f 38/57/109 39/59/110 31/49/111 30/47/112
f 32/50/113 31/49/114 39/59/115 40/60/116
f 25/41/117 32/50/118 40/60/119 33/51/120
f 1/1/121 2/2/122 34/52/123 33/51/124
f 2/2/125 16/27/126 35/53/127 34/52/128
f 36/54/129 35/53/130 16/27/131 20/34/132
f 37/56/133 36/54/134 20/34/135 8/11/136
f 38/58/137 37/55/138 8/8/139 7/7/140
f 7/13/141 19/31/142 39/59/143 38/57/144
f 40/60/145 39/59/146 19/31/147 17/28/148
f 33/51/149 40/60/150 17/28/151 1/1/152
