# This file uses centimeters as units for non-parametric coordinates.

mtllib Alpha_Platform.mtl
g default
v -4.892951 -0.280176 4.565313
v 0.407797 -0.280176 4.384516
v 4.892951 -0.280176 4.565313
v 0.000000 0.280176 0.000000
v -4.892951 -0.280176 -4.565313
v 0.238973 -0.280176 -4.568065
v 4.892951 -0.280176 -4.565313
v -5.118389 -0.280176 -0.687954
v 0.000000 -0.280176 0.000000
v 4.723915 -0.280176 2.359589
v -4.892951 0.112087 4.565313
v -4.724863 0.280176 4.397224
v 0.407797 0.112087 4.384516
v 0.407797 0.280176 4.216427
v 4.724863 0.280176 4.397224
v 4.892951 0.112087 4.565313
v -4.724863 0.280176 -4.397224
v -4.892951 0.112087 -4.565313
v 0.238973 0.280176 -4.399977
v 0.238973 0.112087 -4.568065
v 4.724863 0.280176 -4.397224
v 4.892951 0.112087 -4.565313
v -4.950300 0.280176 -0.687954
v -5.118389 0.112087 -0.687954
v 4.555826 0.280176 2.359589
v 4.723915 0.112087 2.359589
vt 0.625000 0.750000
vt 0.375000 0.875000
vt 0.500000 0.875000
vt 0.625000 0.875000
vt 0.375000 1.000000
vt 0.500000 1.000000
vt 0.625000 1.000000
vt 0.375000 0.375000
vt 0.375000 0.574992
vt 0.379294 0.495398
vt 0.620706 0.495398
vt 0.625000 0.375000
vt 0.500000 0.000000
vt 0.375000 0.175008
vt 0.625000 0.000000
vt 0.500000 0.175008
vt 0.379294 0.254602
vt 0.500000 0.254602
vt 0.620706 0.254602
vt 0.620706 0.375000
vt 0.379294 0.375000
vt 0.500000 0.375000
vt 0.500000 0.495398
vt 0.500000 0.574992
vt 0.375000 0.750000
vt 0.625000 0.574992
vt 0.500000 0.750000
vt 0.875000 0.000000
vt 0.875000 0.175008
vt 0.750000 0.175008
vt 0.750000 0.000000
vt 0.625000 0.175008
vt 0.125000 0.000000
vt 0.250000 0.000000
vt 0.125000 0.175008
vt 0.375000 0.000000
vt 0.250000 0.175008
vn 0.000000 -1.000000 0.000000
vn 0.000000 -1.000000 0.000000
vn 0.000000 -1.000000 0.000000
vn 0.000000 -1.000000 0.000000
vn 0.000000 -1.000000 0.000000
vn 0.000000 -1.000000 -0.000000
vn 0.000000 -1.000000 -0.000000
vn 0.000000 -1.000000 0.000000
vn 0.000000 -1.000000 -0.000000
vn -0.699113 0.714361 0.030489
vn -0.699113 0.714361 0.030489
vn -0.698269 0.715835 -0.000010
vn -0.698270 0.715835 0.000009
vn 0.024712 0.700685 0.713043
vn 0.024712 0.700685 0.713043
vn -0.000003 0.700365 0.713785
vn 0.000004 0.700365 0.713785
vn -0.029335 0.699429 0.714099
vn -0.029335 0.699429 0.714099
vn 0.720140 0.691452 -0.057374
vn 0.720140 0.691452 -0.057374
vn 0.713809 0.700340 -0.000024
vn 0.713803 0.700347 0.000026
vn -0.696083 0.716768 -0.041368
vn -0.696083 0.716768 -0.041368
vn -0.000385 0.707202 -0.707012
vn -0.000385 0.707202 -0.707012
vn 0.000000 0.707206 -0.707007
vn -0.000000 0.707206 -0.707007
vn 0.000426 0.707212 -0.707002
vn 0.000426 0.707212 -0.707002
vn 0.711378 0.702589 0.017578
vn 0.711378 0.702589 0.017578
vn 0.034088 0.000000 0.999419
vn -0.000000 0.000000 1.000000
vn -0.000000 0.000000 1.000000
vn 0.034088 0.000000 0.999419
vn -0.040277 0.000000 0.999189
vn -0.040277 0.000000 0.999189
vn 0.000000 1.000000 0.000000
vn 0.000000 1.000000 -0.000000
vn 0.000000 1.000000 0.000000
vn 0.000000 1.000000 0.000000
vn 0.000000 1.000000 -0.000000
vn 0.000000 1.000000 -0.000000
vn 0.000000 1.000000 0.000000
vn 0.000000 1.000000 0.000000
vn 0.000000 1.000000 0.000000
vn -0.000536 0.000000 -1.000000
vn 0.000000 0.000000 -1.000000
vn 0.000000 0.000000 -1.000000
vn -0.000536 0.000000 -1.000000
vn 0.000591 0.000000 -1.000000
vn 0.000591 0.000000 -1.000000
vn 1.000000 0.000000 0.000000
vn 0.999702 0.000000 0.024403
vn 0.999702 0.000000 0.024403
vn 1.000000 0.000000 0.000000
vn 0.997076 0.000000 -0.076411
vn 0.997076 0.000000 -0.076411
vn -0.998314 0.000000 -0.058044
vn -1.000000 0.000000 -0.000000
vn -1.000000 0.000000 -0.000000
vn -0.998314 0.000000 -0.058044
vn -0.999080 0.000000 0.042874
vn -0.999080 0.000000 0.042874
s 1
g Starting_Point
usemtl initialShadingGroup
f 5/25/1 6/27/2 9/3/3 8/2/4
f 6/27/2 7/1/5 10/4/6 9/3/3
f 8/2/4 9/3/3 2/6/7 1/5/8
f 9/3/3 10/4/6 3/7/9 2/6/7
s 2
f 11/14/10 12/17/11 23/21/12 24/8/13
s 3
f 12/17/14 11/14/15 13/16/16 14/18/17
f 14/18/17 13/16/16 16/32/18 15/19/19
s 4
f 15/19/20 16/32/21 26/12/22 25/20/23
s 2
f 17/10/24 18/9/25 24/8/13 23/21/12
s 5
f 18/9/26 17/10/27 19/23/28 20/24/29
f 20/24/29 19/23/28 21/11/30 22/26/31
s 4
f 22/26/32 21/11/33 25/20/23 26/12/22
s 6
f 1/36/34 2/13/35 13/16/36 11/14/37
f 2/13/35 3/15/38 16/32/39 13/16/36
s 7
f 12/17/40 14/18/41 4/22/42 23/21/43
f 14/18/41 15/19/44 25/20/45 4/22/42
f 23/21/43 4/22/42 19/23/46 17/10/47
f 4/22/42 25/20/45 21/11/48 19/23/46
s 8
f 18/9/49 20/24/50 6/27/51 5/25/52
f 20/24/50 22/26/53 7/1/54 6/27/51
s 9
f 10/31/55 7/28/56 22/29/57 26/30/58
f 3/15/59 10/31/55 26/30/58 16/32/60
s 10
f 5/33/61 8/34/62 24/37/63 18/35/64
f 8/34/62 1/36/65 11/14/66 24/37/63
