# This file uses centimeters as units for non-parametric coordinates.

mtllib Alpha_BigRock_2.mtl
g default
v -3.810704 -3.085793 2.821307
v 3.272208 -3.085793 3.379498
v -3.783633 2.085793 3.291028
v 3.442586 2.085793 3.111579
v -3.818218 2.085793 -4.604586
v 2.857091 2.085793 -5.131974
v -3.388358 -3.085793 -4.379498
v 3.272208 -3.085793 -4.379498
v -5.003875 2.085793 0.426395
v 4.003875 2.085793 0.426395
v 3.272208 -3.085793 0.275900
v -4.272208 -3.085793 0.275900
v -4.272208 -3.085793 -2.982879
v 3.272208 -3.085793 -2.982879
v 4.003875 2.085793 -3.464464
v -4.741200 2.085793 -3.464464
v -4.491708 -1.534317 3.605241
v 3.491708 -1.534317 3.605241
v 4.211790 -1.534317 0.321048
v 4.211790 -1.534317 -3.127355
v 3.491708 -1.534317 -4.605241
v -3.711694 -1.534317 -5.042110
v -4.491708 -1.534317 -3.127355
v -4.491708 -1.534317 0.321048
v 0.254442 -4.113402 3.379498
v 0.254442 -4.113402 0.275900
v 0.254442 -3.875748 -2.982879
v 0.254442 -3.085793 -4.379498
v 0.298342 -1.534317 -5.341552
v 0.400775 2.085793 -5.131974
v 0.400775 2.085793 -3.464464
v 0.400775 2.085793 0.426395
v 0.400775 2.085793 4.131974
v 0.298342 -1.534317 4.884688
vt 0.375000 0.000000
vt 0.625000 0.000000
vt 0.375000 0.250000
vt 0.625000 0.250000
vt 0.375000 0.500000
vt 0.625000 0.500000
vt 0.375000 0.750000
vt 0.625000 0.750000
vt 0.375000 1.000000
vt 0.625000 1.000000
vt 0.875000 0.000000
vt 0.875000 0.250000
vt 0.125000 0.000000
vt 0.125000 0.250000
vt 0.275000 0.250000
vt 0.375000 0.350000
vt 0.625000 0.350000
vt 0.725000 0.250000
vt 0.625000 0.900000
vt 0.725000 0.000000
vt 0.275000 0.000000
vt 0.375000 0.900000
vt 0.170000 0.000000
vt 0.375000 0.795000
vt 0.625000 0.795000
vt 0.830000 0.000000
vt 0.625000 0.455000
vt 0.830000 0.250000
vt 0.170000 0.250000
vt 0.375000 0.455000
vt 0.375000 0.075000
vt 0.625000 0.075000
vt 0.725000 0.075000
vt 0.830000 0.075000
vt 0.625000 0.675000
vt 0.875000 0.075000
vt 0.125000 0.075000
vt 0.375000 0.675000
vt 0.170000 0.075000
vt 0.275000 0.075000
vt 0.525000 0.000000
vt 0.525000 1.000000
vt 0.525000 0.900000
vt 0.525000 0.795000
vt 0.525000 0.750000
vt 0.525000 0.675000
vt 0.525000 0.500000
vt 0.525000 0.455000
vt 0.525000 0.350000
vt 0.525000 0.250000
vt 0.525000 0.075000
vn 0.312556 0.184887 0.931733
vn 0.312556 0.184887 0.931733
vn 0.312556 0.184887 0.931733
vn 0.000000 1.000000 0.000000
vn 0.000000 1.000000 0.000000
vn 0.000000 1.000000 0.000000
vn 0.000000 1.000000 0.000000
vn 0.129160 -0.033919 -0.991043
vn 0.129160 -0.033919 -0.991043
vn 0.129160 -0.033919 -0.991043
vn 0.129160 -0.033919 -0.991043
vn 0.288177 -0.956941 -0.034894
vn 0.288177 -0.956941 -0.034894
vn 0.288177 -0.956941 -0.034894
vn 0.288177 -0.956941 -0.034894
vn 0.998355 0.057339 0.000000
vn 0.998355 0.057339 0.000000
vn 0.998355 0.057339 0.000000
vn 0.998355 0.057339 0.000000
vn -0.993764 -0.105681 -0.035567
vn -0.993764 -0.105681 -0.035567
vn -0.993764 -0.105681 -0.035567
vn -0.993764 -0.105681 -0.035567
vn 0.000000 1.000000 0.000000
vn 0.000000 1.000000 0.000000
vn 0.000000 1.000000 0.000000
vn 0.000000 1.000000 0.000000
vn 0.976697 0.045919 0.209655
vn 0.976697 0.045919 0.209655
vn 0.976697 0.045919 0.209655
vn 0.976697 0.045919 0.209655
vn 0.322344 -0.946623 0.000000
vn 0.322344 -0.946623 0.000000
vn 0.322344 -0.946623 0.000000
vn 0.322344 -0.946623 0.000000
vn -0.980365 0.032140 0.194555
vn -0.980365 0.032140 0.194555
vn -0.980365 0.032140 0.194555
vn -0.980365 0.032140 0.194555
vn 0.000000 -0.870413 -0.492322
vn 0.000000 -0.870413 -0.492322
vn 0.000000 -0.870413 -0.492322
vn 0.859281 0.039144 -0.510003
vn 0.859281 0.039144 -0.510003
vn 0.859281 0.039144 -0.510003
vn 0.859281 0.039144 -0.510003
vn 0.000000 1.000000 0.000000
vn 0.000000 1.000000 0.000000
vn 0.000000 1.000000 0.000000
vn 0.000000 1.000000 0.000000
vn -0.872876 -0.036172 -0.486600
vn -0.872876 -0.036172 -0.486600
vn -0.872876 -0.036172 -0.486600
vn -0.872876 -0.036172 -0.486600
vn 0.169879 -0.498881 0.849859
vn 0.169879 -0.498881 0.849858
vn 0.169879 -0.498881 0.849859
vn 0.928601 -0.356010 0.104679
vn 0.928601 -0.356010 0.104679
vn 0.928601 -0.356010 0.104679
vn 0.928601 -0.356010 0.104679
vn 0.855370 -0.518017 0.000000
vn 0.855370 -0.518017 0.000000
vn 0.855370 -0.518017 0.000000
vn 0.855370 -0.518017 0.000000
vn 0.903320 -0.364427 -0.226287
vn 0.903320 -0.364427 -0.226287
vn 0.903320 -0.364427 -0.226287
vn 0.903320 -0.364427 -0.226287
vn 0.109672 -0.363448 -0.925137
vn 0.109672 -0.363448 -0.925137
vn 0.109672 -0.363448 -0.925137
vn 0.109672 -0.363448 -0.925136
vn -0.861976 -0.263451 -0.433117
vn -0.861976 -0.263451 -0.433117
vn -0.861976 -0.263451 -0.433117
vn -0.861976 -0.263451 -0.433117
vn -0.990140 -0.140083 0.000000
vn -0.990140 -0.140083 0.000000
vn -0.990140 -0.140083 0.000000
vn -0.990140 -0.140083 0.000000
vn -0.952073 -0.296439 0.075372
vn -0.952073 -0.296439 0.075372
vn -0.952073 -0.296439 0.075372
vn -0.952073 -0.296439 0.075372
vn -0.233775 -0.972103 0.019099
vn -0.233775 -0.972103 0.019099
vn -0.233775 -0.972103 0.019099
vn -0.233775 -0.972103 0.019099
vn -0.196709 -0.979811 -0.035728
vn -0.196709 -0.979811 -0.035728
vn -0.196709 -0.979811 -0.035728
vn -0.196709 -0.979811 -0.035728
vn 0.000000 -0.870413 -0.492322
vn 0.000000 -0.870413 -0.492322
vn 0.000000 -0.870413 -0.492322
vn -0.034593 -0.466018 -0.884099
vn -0.034593 -0.466018 -0.884099
vn -0.034593 -0.466018 -0.884099
vn -0.034593 -0.466018 -0.884099
vn -0.099581 0.088523 -0.991084
vn -0.099581 0.088523 -0.991084
vn -0.099581 0.088523 -0.991084
vn -0.099581 0.088523 -0.991084
vn 0.000000 1.000000 0.000000
vn 0.000000 1.000000 0.000000
vn 0.000000 1.000000 0.000000
vn 0.000000 1.000000 0.000000
vn 0.000000 1.000000 0.000000
vn 0.000000 1.000000 0.000000
vn 0.000000 1.000000 0.000000
vn 0.000000 1.000000 0.000000
vn 0.000000 1.000000 0.000000
vn 0.000000 1.000000 0.000000
vn 0.000000 1.000000 0.000000
vn 0.000000 1.000000 0.000000
vn -0.255761 0.133136 0.957529
vn -0.255761 0.133136 0.957529
vn -0.255761 0.133136 0.957529
vn -0.238392 -0.486489 0.840534
vn -0.238392 -0.486489 0.840534
vn -0.238392 -0.486489 0.840534
vn 0.253236 -0.967405 0.000000
vn 0.253236 -0.967405 0.000000
vn 0.253236 -0.967405 0.000000
vn -0.170905 -0.979333 -0.108157
vn -0.170906 -0.979333 -0.108158
vn -0.170905 -0.979333 -0.108157
vn 0.365535 -0.184462 0.912337
vn 0.365535 -0.184462 0.912337
vn 0.365535 -0.184462 0.912337
vn -0.221142 -0.515403 0.827923
vn -0.221142 -0.515403 0.827923
vn -0.221142 -0.515403 0.827923
vn 0.368736 0.130505 0.920327
vn 0.368736 0.130505 0.920327
vn 0.368736 0.130505 0.920327
vn -0.192848 0.204978 0.959580
vn -0.192848 0.204978 0.959580
vn -0.192848 0.204978 0.959580
s off
g Big_Rock_2
usemtl initialShadingGroup
f 33/50/1 34/51/2 4/4/3
f 31/48/4 32/49/5 10/17/6 15/27/7
f 29/46/8 30/47/9 6/6/10 21/35/11
f 26/43/12 27/44/13 14/25/14 11/19/15
f 10/18/16 19/33/17 20/34/18 15/28/19
f 16/29/20 23/39/21 24/40/22 9/15/23
f 32/49/24 33/50/25 4/4/26 10/17/27
f 18/32/28 19/33/29 10/18/30 4/4/31
f 25/42/32 26/43/33 11/19/34 2/10/35
f 9/15/36 24/40/37 17/31/38 3/3/39
f 27/44/40 28/45/41 8/8/42
f 15/28/43 20/34/44 21/36/45 6/12/46
f 30/47/47 31/48/48 15/27/49 6/6/50
f 22/37/51 23/39/52 16/29/53 5/14/54
f 34/51/55 25/41/56 2/2/57
f 2/2/58 11/20/59 19/33/60 18/32/61
f 20/34/62 19/33/63 11/20/64 14/26/65
f 21/36/66 20/34/67 14/26/68 8/11/69
f 28/45/70 29/46/71 21/35/72 8/8/73
f 7/13/74 13/23/75 23/39/76 22/37/77
f 24/40/78 23/39/79 13/23/80 12/21/81
f 17/31/82 24/40/83 12/21/84 1/1/85
f 12/22/86 26/43/87 25/42/88 1/9/89
f 13/24/90 27/44/91 26/43/92 12/22/93
f 7/7/94 28/45/95 27/44/96
f 22/38/97 29/46/98 28/45/99 7/7/100
f 5/5/101 30/47/102 29/46/103 22/38/104
f 16/30/105 31/48/106 30/47/107 5/5/108
f 9/16/109 32/49/110 31/48/111 16/30/112
f 3/3/113 33/50/114 32/49/115 9/16/116
f 17/31/117 34/51/118 3/3/119
f 1/1/120 25/41/121 34/51/122
f 27/44/123 8/8/124 14/25/125
f 7/7/126 27/44/127 13/24/128
f 34/51/129 2/2/130 18/32/131
f 1/1/132 34/51/133 17/31/134
f 4/4/135 34/51/136 18/32/137
f 3/3/138 34/51/139 33/50/140
