# ProBuilder 4.2.3
# https://unity3d.com/unity/features/worldbuilding/probuilder
# 20/05/2021 9:42:17 a.m.

mtllib ./Cone.mtl
o Cone

g Cone
v 0 0 0
v 0.0761205 0 0.3826835
v 1 2 0
v 1 0 0
v 0.2928932 0 0.7071068
v 0.6173166 0 0.9238795
v 1 0 1
v 1.382683 0 0.9238796
v 1.707107 0 0.7071068
v 1.92388 0 0.3826835
v 2 0 -8.742278E-08
v 1.92388 0 -0.3826834
v 1.707107 0 -0.7071067
v 1.382684 0 -0.9238795
v 1 0 -1
v 0.6173164 0 -0.9238794
v 0.2928934 0 -0.7071069
v 0.07612044 0 -0.3826834

vt 0 3.75513E-10
vt 0.3901807 0
vt 0.1950904 2.227541
vt 0.0761205 0.3826835
vt 1 0
vt 0.2928932 0.7071068
vt 0.6173166 0.9238795
vt 1 1
vt 1.382683 0.9238796
vt 1.707107 0.7071068
vt 1.92388 0.3826835
vt 2 -8.742278E-08
vt 1.92388 -0.3826834
vt 1.707107 -0.7071067
vt 1.382684 -0.9238795
vt 1 -1
vt 0.6173164 -0.9238794
vt 0.2928934 -0.7071069
vt 0.07612044 -0.3826834

vn -0.880599 0.4402995 0.1751621
vn 0 -1 0
vn -0.7465358 0.4402995 0.4988193
vn -0.4988192 0.4402995 0.7465358
vn -0.1751621 0.4402995 0.880599
vn 0.175162 0.4402995 0.880599
vn 0.4988193 0.4402995 0.7465358
vn 0.7465358 0.4402995 0.4988192
vn 0.880599 0.4402995 0.175162
vn 0.880599 0.4402995 -0.1751621
vn 0.7465358 0.4402995 -0.4988192
vn 0.4988194 0.4402995 -0.7465357
vn 0.1751621 0.4402995 -0.880599
vn -0.1751622 0.4402995 -0.880599
vn -0.4988193 0.4402995 -0.7465358
vn -0.7465357 0.4402995 -0.4988194
vn -0.880599 0.4402995 -0.175162

usemtl Lit
f 1/1/1 2/2/1 3/3/1
f 4/5/2 2/4/2 1/1/2
f 2/1/3 5/2/3 3/3/3
f 4/5/2 5/6/2 2/4/2
f 5/1/4 6/2/4 3/3/4
f 4/5/2 6/7/2 5/6/2
f 6/1/5 7/2/5 3/3/5
f 4/5/2 7/8/2 6/7/2
f 7/1/6 8/2/6 3/3/6
f 4/5/2 8/9/2 7/8/2
f 8/1/7 9/2/7 3/3/7
f 4/5/2 9/10/2 8/9/2
f 9/1/8 10/2/8 3/3/8
f 4/5/2 10/11/2 9/10/2
f 10/1/9 11/2/9 3/3/9
f 4/5/2 11/12/2 10/11/2
f 11/1/10 12/2/10 3/3/10
f 4/5/2 12/13/2 11/12/2
f 12/1/11 13/2/11 3/3/11
f 4/5/2 13/14/2 12/13/2
f 13/1/12 14/2/12 3/3/12
f 4/5/2 14/15/2 13/14/2
f 14/1/13 15/2/13 3/3/13
f 4/5/2 15/16/2 14/15/2
f 15/1/14 16/2/14 3/3/14
f 4/5/2 16/17/2 15/16/2
f 16/1/15 17/2/15 3/3/15
f 4/5/2 17/18/2 16/17/2
f 17/1/16 18/2/16 3/3/16
f 4/5/2 18/19/2 17/18/2
f 18/1/17 1/2/17 3/3/17
f 4/5/2 1/1/2 18/19/2

